<?xml version="1.0" standalone="no"?>
<!DOCTYPE svg PUBLIC "-//W3C//DTD SVG 20010904//EN"
 "http://www.w3.org/TR/2001/REC-SVG-20010904/DTD/svg10.dtd">
<svg version="1.0" xmlns="http://www.w3.org/2000/svg"
 width="130.000000pt" height="249.000000pt" viewBox="0 0 130.000000 249.000000"
 preserveAspectRatio="none">
<metadata>
zooom
</metadata>
<g transform="translate(0.000000,249.000000) scale(0.100000,-0.100000)"
fill="#FFA500" stroke="none">
<path d="M147 2434 c-4 -4 -46 -12 -68 -13 -9 -1 -16 -7 -17 -13 -7 -75 -13
-1178 -6 -1178 5 -1 61 -2 124 -3 l115 -3 -5 588 c-4 401 -9 591 -17 599 -10
10 -119 29 -126 23z"/>
<path d="M530 1468 l0 -968 58 -1 c31 0 84 -1 117 -2 l60 -2 -5 969 -5 970
-113 0 -112 1 0 -967z"/>
<path d="M1093 2432 c-28 -2 -56 -9 -62 -16 -8 -10 -12 -177 -11 -567 0 -559
7 -856 21 -864 14 -9 129 -22 129 -14 0 4 11 6 24 5 50 -6 51 -4 58 276 9 363
10 979 2 1087 l-7 89 -51 4 c-28 1 -74 2 -103 0z"/>
<path d="M124 1000 c-5 -5 -22 -11 -36 -12 -23 -2 -26 -7 -32 -57 -8 -70 3
-167 20 -182 8 -7 43 -12 78 -13 36 0 68 -4 72 -8 4 -5 12 -8 18 -8 6 0 4 5
-4 10 -12 8 -11 10 7 10 30 0 43 45 43 151 0 76 -3 90 -19 98 -10 6 -21 7 -25
4 -3 -3 -6 0 -6 7 0 11 -3 11 -12 2 -15 -15 -70 -16 -84 -2 -7 7 -13 7 -20 0z"/>
<path d="M1020 660 c0 -122 6 -148 39 -154 30 -7 128 -9 154 -3 33 7 39 24 40
133 l2 109 -117 2 -118 1 0 -88z"/>
<path d="M695 270 c-3 -5 -34 -9 -68 -9 -107 -1 -98 11 -95 -120 l3 -116 113
-1 112 -1 0 116 0 117 -30 11 c-16 6 -32 7 -35 3z"/>
</g>
</svg>
