<?xml version="1.0" standalone="no"?>
<!DOCTYPE svg PUBLIC "-//W3C//DTD SVG 20010904//EN"
 "http://www.w3.org/TR/2001/REC-SVG-20010904/DTD/svg10.dtd">
<svg version="1.0" xmlns="http://www.w3.org/2000/svg"
 width="100.000000pt" height="167.000000pt" viewBox="0 0 100.000000 167.000000"
 preserveAspectRatio="xMidYMid meet">
<g transform="translate(0.000000,167.000000) scale(0.100000,-0.100000)"
fill="#279df9" stroke="none">
<path d="M454 1617 c-68 -87 -144 -209 -144 -232 0 -3 86 -5 190 -5 105 0 190
2 190 5 0 32 -170 286 -190 284 -3 0 -23 -23 -46 -52z"/>
<path d="M280 1311 c-5 -11 -10 -22 -10 -25 0 -3 104 -6 230 -6 133 0 230 4
230 9 0 40 -4 41 -226 41 -201 0 -214 -1 -224 -19z"/>
<path d="M259 1219 c-17 -10 -39 -152 -45 -289 -9 -200 20 -394 91 -607 l27
-82 132 -3 c72 -2 148 -1 168 1 l38 3 35 111 c87 274 110 578 61 799 l-17 75
-240 -1 c-133 -1 -245 -4 -250 -7z m321 -200 c111 -83 -6 -258 -130 -194 -59
30 -79 119 -38 170 43 55 112 65 168 24z"/>
<path d="M147 625 c-9 -8 -19 -15 -23 -15 -15 0 -58 -57 -80 -105 -38 -84 -50
-187 -36 -308 7 -57 18 -124 26 -148 l13 -44 12 45 c22 84 53 150 80 171 31
24 86 49 110 49 16 0 15 7 -6 71 -13 39 -35 121 -49 182 -13 61 -26 112 -28
114 -2 2 -11 -3 -19 -12z"/>
<path d="M826 613 c-3 -10 -12 -52 -21 -94 -8 -42 -26 -109 -40 -149 -14 -41
-25 -79 -25 -86 0 -7 18 -15 40 -19 43 -7 92 -42 112 -79 7 -11 24 -57 39
-100 l27 -80 16 73 c51 223 21 404 -84 511 -43 44 -56 49 -64 23z"/>
</g>
</svg>
