<?xml version="1.0" standalone="no"?>
<!DOCTYPE svg PUBLIC "-//W3C//DTD SVG 20010904//EN"
 "http://www.w3.org/TR/2001/REC-SVG-20010904/DTD/svg10.dtd">
<svg version="1.0" xmlns="http://www.w3.org/2000/svg"
 width="350.000000pt" height="146.000000pt" viewBox="0 0 350.000000 146.000000"
 preserveAspectRatio="xMidYMid meet">
<g transform="translate(0.000000,146.000000) scale(0.100000,-0.100000)"
fill="#d9d8d8" stroke="none">
<path d="M1549 1441 c-220 -71 -351 -262 -336 -493 l5 -76 -42 19 c-59 27
-113 24 -177 -8 -46 -24 -58 -36 -83 -87 -25 -49 -31 -75 -34 -148 l-5 -90
-30 38 c-80 96 -245 111 -318 28 -23 -27 -69 -120 -69 -141 0 -13 -8 -7 -30
19 -60 73 -154 96 -237 59 -87 -40 -193 -168 -193 -234 l0 -27 825 2 825 3 10
-31 c16 -47 72 -106 130 -138 45 -24 64 -29 129 -29 83 0 116 11 176 64 28 25
35 27 35 14 0 -54 68 -136 138 -166 60 -26 164 -25 236 1 50 19 120 81 151
133 8 15 16 16 45 7 90 -26 182 4 233 77 l31 43 268 0 c214 0 268 3 268 13 0
24 -57 104 -95 133 -30 22 -50 29 -101 32 -39 3 -69 0 -78 -7 -11 -9 -16 -3
-25 33 -6 26 -25 60 -46 82 -35 37 -35 37 -103 32 l-69 -5 -11 42 c-32 121
-148 186 -244 137 l-36 -19 -7 36 c-15 85 -39 144 -80 200 -97 132 -272 160
-401 65 l-31 -23 -13 57 c-27 127 -131 270 -231 319 -109 54 -272 69 -380 34z"/>
</g>
</svg>
